<?xml version="1.0" encoding="UTF-8"?>
<svg width="18px" height="20px" viewBox="0 0 18 20" version="1.1" xmlns="http://www.w3.org/2000/svg" xmlns:xlink="http://www.w3.org/1999/xlink">
    <!-- Generator: Sketch 43.2 (39069) - http://www.bohemiancoding.com/sketch -->
    <title>Group</title>
    <desc>Created with Sketch.</desc>
    <defs></defs>
    <g id="Page-1" stroke="none" stroke-width="1" fill="none" fill-rule="evenodd">
        <g id="Artboard" transform="translate(-240.000000, -154.000000)">
            <g id="Group" transform="translate(240.000000, 154.000000)">
                <path d="M9,19.9995441 C13.7223207,19.9995441 17.550518,20.1479221 17.550518,15.0909786 C17.550518,10.034035 13.7223207,5.93457226 9,5.93457226 C4.27767933,5.93457226 0.449482048,10.034035 0.449482048,15.0909786 C0.449482048,20.1479221 4.27767933,19.9995441 9,19.9995441 Z" id="Oval-2" fill="#FFFFFF"></path>
                <path d="M3.26627499,3.7085081 C2.93558759,2.16619215 3.87788756,1 5.45613177,1 L12.5438682,1 C14.1250975,1 15.0656286,2.16051986 14.733725,3.7085081 L13.5094459,9.41850828 C13.1444694,11.1207478 11.384305,12.5463063 9.65158862,12.5463063 L8.34841138,12.5463063 C6.60950586,12.5463063 4.85725572,11.1287937 4.49055406,9.41850828 L3.26627499,3.7085081 Z" id="Rectangle-12" stroke="#FFFFFF" stroke-width="2"></path>
            </g>
        </g>
    </g>
</svg>