<?xml version="1.0" encoding="UTF-8"?>
<svg width="88px" height="88px" viewBox="0 0 88 88" version="1.1" xmlns="http://www.w3.org/2000/svg" xmlns:xlink="http://www.w3.org/1999/xlink">
    <!-- Generator: Sketch 43.2 (39069) - http://www.bohemiancoding.com/sketch -->
    <title>Combined Shape</title>
    <desc>Created with Sketch.</desc>
    <defs></defs>
    <g id="Page-1" stroke="none" stroke-width="1" fill="none" fill-rule="evenodd">
        <g id="Artboard" transform="translate(-323.000000, -347.000000)" fill="#FFFFFF">
            <g id="Group-7" transform="translate(323.000000, 347.000000)">
                <path d="M59,46.75 L59,22.9970047 C59,21.8949789 58.1054196,21 57.0018986,21 L55,21 C52.7953562,21 51,22.7933325 51,25.0055203 L51,42.9944797 C51,45.2129147 52.790861,47 55,47 L55,67.4991358 C55,68.5983727 55.8954305,69.5 57,69.5 C58.1122704,69.5 59,68.6041826 59,67.4991358 L59,46.75 Z M44,88 C19.699471,88 0,68.300529 0,44 C0,19.699471 19.699471,0 44,0 C68.300529,0 88,19.699471 88,44 C88,68.300529 68.300529,88 44,88 Z M27,30.5 L30.9,38.5 L36.1,38.5 L40,30.5 L27,30.5 Z M27,22.5053032 L27,30.5 L30,30.5 L30,22.5053032 C30,21.6680216 29.3284271,21 28.5,21 C27.6657972,21 27,21.6739472 27,22.5053032 Z M32,22.5053032 L32,30.5 L35,30.5 L35,22.5053032 C35,21.6680216 34.3284271,21 33.5,21 C32.6657972,21 32,21.6739472 32,22.5053032 Z M37,22.5053032 L37,30.5 L40,30.5 L40,22.5053032 C40,21.6680216 39.3284271,21 38.5,21 C37.6657972,21 37,21.6739472 37,22.5053032 Z M31,38.5 L31,67.002485 C31,68.3783795 32.1192881,69.5 33.5,69.5 C34.8903379,69.5 36,68.3818245 36,67.002485 L36,38.5 L31,38.5 Z" id="Combined-Shape"></path>
            </g>
        </g>
    </g>
</svg>