<?xml version="1.0" encoding="UTF-8"?>
<svg width="128px" height="88px" viewBox="0 0 128 88" version="1.1" xmlns="http://www.w3.org/2000/svg" xmlns:xlink="http://www.w3.org/1999/xlink">
    <!-- Generator: Sketch 43.2 (39069) - http://www.bohemiancoding.com/sketch -->
    <title>Group 12</title>
    <desc>Created with Sketch.</desc>
    <defs></defs>
    <g id="Page-1" stroke="none" stroke-width="1" fill="none" fill-rule="evenodd">
        <g id="Artboard" transform="translate(-400.000000, -208.000000)">
            <g id="Group-12" transform="translate(404.000000, 206.000000)">
                <g id="Group-10" transform="translate(30.000000, 0.000000)">
                    <g id="Group-8" transform="translate(0.000000, 2.000000)">
                        <path d="M60,25.9926423 L60,73.0022398 C60,79.076135 55.0772074,84 48.9950752,84 L11.0049248,84 C4.92707265,84 0,79.0710579 0,73.0022398 L0,14.9977602 L0,14.9977602 C0,8.92386496 4.92279257,4 11.0049248,4 L37.9989123,4" id="Rectangle-9" stroke="#FFFFFF" stroke-width="8"></path>
                        <rect id="Rectangle-10" fill="#FFFFFF" x="56" y="22" width="8" height="17" rx="4"></rect>
                        <rect id="Rectangle-10" fill="#FFFFFF" transform="translate(34.000000, 4.000000) rotate(90.000000) translate(-34.000000, -4.000000) " x="30" y="-4.5" width="8" height="17" rx="4"></rect>
                    </g>
                    <g id="Group-9" transform="translate(43.000000, 23.500000) rotate(45.000000) translate(-43.000000, -23.500000) translate(39.000000, -5.000000)" fill="#FFFFFF">
                        <path d="M2.885777,49.7855575 C3.50114537,48.2471366 4.49851507,48.2462877 5.114223,49.7855575 L8,57 L0,57 L2.885777,49.7855575 Z" id="Triangle" transform="translate(4.000000, 52.000000) rotate(180.000000) translate(-4.000000, -52.000000) "></path>
                        <path d="M0,4.00719357 C0,1.79408167 1.79535615,0 4,0 L4,0 C6.209139,0 8,1.78506374 8,4.00719357 L8,47 L0,47 L0,4.00719357 Z" id="Rectangle-11"></path>
                    </g>
                    <rect id="Rectangle-13" fill="#FFFFFF" x="12" y="18" width="23" height="4" rx="2"></rect>
                    <rect id="Rectangle-13" fill="#FFFFFF" x="12" y="26" width="15" height="4" rx="2"></rect>
                    <rect id="Rectangle-13" fill="#FFFFFF" x="12" y="34" width="10" height="4" rx="2"></rect>
                    <rect id="Rectangle-13" fill="#FFFFFF" x="42" y="34" width="6" height="4" rx="2"></rect>
                    <rect id="Rectangle-13" fill="#FFFFFF" x="33" y="42" width="15" height="4" rx="2"></rect>
                    <rect id="Rectangle-13" fill="#FFFFFF" x="12" y="42" width="8" height="4" rx="2"></rect>
                    <rect id="Rectangle-13" fill="#FFFFFF" x="12" y="50" width="36" height="4" rx="2"></rect>
                    <rect id="Rectangle-13" fill="#FFFFFF" x="12" y="58" width="36" height="4" rx="2"></rect>
                    <rect id="Rectangle-13" fill="#FFFFFF" x="12" y="66" width="18" height="4" rx="2"></rect>
                </g>
                <g id="Group-11" transform="translate(0.000000, 16.000000)">
                    <path d="M12,14 C12,12.8954305 12.8874333,12 13.999615,12 L22,12 L22,16 L13.999615,16 C12.8952581,16 12,15.1122704 12,14 L12,14 Z" id="Rectangle-13" fill="#FFFFFF"></path>
                    <path d="M12,22 C12,20.8954305 12.8874333,20 13.999615,20 L22,20 L22,24 L13.999615,24 C12.8952581,24 12,23.1122704 12,22 L12,22 Z" id="Rectangle-13" fill="#FFFFFF"></path>
                    <path d="M12,30 C12,28.8954305 12.8874333,28 13.999615,28 L22,28 L22,32 L13.999615,32 C12.8952581,32 12,31.1122704 12,30 L12,30 Z" id="Rectangle-13" fill="#FFFFFF"></path>
                    <path d="M12,38 C12,36.8954305 12.8874333,36 13.999615,36 L22,36 L22,40 L13.999615,40 C12.8952581,40 12,39.1122704 12,38 L12,38 Z" id="Rectangle-13" fill="#FFFFFF"></path>
                    <path d="M12,46 C12,44.8954305 12.8874333,44 13.999615,44 L22,44 L22,48 L13.999615,48 C12.8952581,48 12,47.1122704 12,46 L12,46 Z" id="Rectangle-13" fill="#FFFFFF"></path>
                    <path d="M22.0040226,60 L14.9959774,60 C6.71392775,60 0,53.4933614 0,45.4756737 L0,14.5243263 L0,14.5243263 C0,6.50276239 6.72187207,0 14.9959774,0 L22.0040226,0" id="Rectangle-14" stroke="#FFFFFF" stroke-width="8"></path>
                </g>
                <g id="Group-11" transform="translate(108.500000, 44.000000) scale(-1, 1) translate(-108.500000, -44.000000) translate(97.000000, 12.000000)">
                    <rect id="Rectangle-10" fill="#FFFFFF" transform="translate(16.500000, 4.000000) rotate(90.000000) translate(-16.500000, -4.000000) " x="12.5" y="-2" width="8" height="12" rx="4"></rect>
                    <path d="M12,18 C12,16.8954305 12.8874333,16 13.999615,16 L22,16 L22,20 L13.999615,20 C12.8952581,20 12,19.1122704 12,18 L12,18 Z" id="Rectangle-13" fill="#FFFFFF"></path>
                    <path d="M12,26 C12,24.8954305 12.8874333,24 13.999615,24 L22,24 L22,28 L13.999615,28 C12.8952581,28 12,27.1122704 12,26 L12,26 Z" id="Rectangle-13" fill="#FFFFFF"></path>
                    <path d="M12,34 C12,32.8954305 12.8874333,32 13.999615,32 L22,32 L22,36 L13.999615,36 C12.8952581,36 12,35.1122704 12,34 L12,34 Z" id="Rectangle-13" fill="#FFFFFF"></path>
                    <path d="M12,42 C12,40.8954305 12.8874333,40 13.999615,40 L22,40 L22,44 L13.999615,44 C12.8952581,44 12,43.1122704 12,42 L12,42 Z" id="Rectangle-13" fill="#FFFFFF"></path>
                    <path d="M12,50 C12,48.8954305 12.8874333,48 13.999615,48 L22,48 L22,52 L13.999615,52 C12.8952581,52 12,51.1122704 12,50 L12,50 Z" id="Rectangle-13" fill="#FFFFFF"></path>
                    <path d="M22.0040226,64 L14.9959774,64 C6.71392775,64 0,57.4933614 0,49.4756737 L0,18.5243263 C0,10.5027624 6.72187207,4 14.9959774,4" id="Rectangle-14" stroke="#FFFFFF" stroke-width="8"></path>
                </g>
            </g>
        </g>
    </g>
</svg>