<?xml version="1.0" encoding="UTF-8"?>
<svg width="106px" height="72px" viewBox="0 0 106 72" version="1.1" xmlns="http://www.w3.org/2000/svg" xmlns:xlink="http://www.w3.org/1999/xlink">
    <!-- Generator: Sketch 43.2 (39069) - http://www.bohemiancoding.com/sketch -->
    <title>Group 4</title>
    <desc>Created with Sketch.</desc>
    <defs></defs>
    <g id="Page-1" stroke="none" stroke-width="1" fill="none" fill-rule="evenodd">
        <g id="Artboard" transform="translate(-233.000000, -205.000000)" fill="#FFFFFF">
            <g id="Group-4" transform="translate(230.000000, 205.000000)">
                <g id="Group-3" transform="translate(0.000000, 6.000000)">
                    <path d="M11.925719,23.6394033 C11.5589428,20.9031241 13.4919282,18.6849315 16.2707098,18.6849315 L31.7380404,18.6849315 L22.0458477,61.1506849 L21.9574658,61.1506849 C19.19402,61.1506849 16.655782,58.9273319 16.2896975,56.1962132 L11.925719,23.6394033 Z" id="Rectangle-2"></path>
                    <path d="M6.19025006,22.9298774 C6.0503155,20.5953528 7.84104175,18.7028466 10.1793004,18.7028466 L12.4216783,18.7028466 C13.5262734,18.7028466 14.3685592,19.5898042 14.3023662,20.6941002 L11.9956285,59.1773465 C11.9297087,60.2770855 10.9845525,61.1686001 9.88237041,61.1686001 L10.4762303,61.1686001 C9.37502996,61.1686001 8.42916524,60.2816424 8.36297225,59.1773465 L6.19025006,22.9298774 Z" id="Rectangle-3" transform="translate(10.244296, 39.935723) rotate(16.000000) translate(-10.244296, -39.935723) "></path>
                    <ellipse id="Oval-3" cx="28" cy="8.49315068" rx="8.48484848" ry="8.49315068"></ellipse>
                </g>
                <g id="Group-3" transform="translate(93.500000, 37.000000) scale(-1, 1) translate(-93.500000, -37.000000) translate(75.000000, 6.000000)">
                    <path d="M11.925719,23.6394033 C11.5589428,20.9031241 13.4919282,18.6849315 16.2707098,18.6849315 L31.7380404,18.6849315 L22.0458477,61.1506849 L21.9574658,61.1506849 C19.19402,61.1506849 16.655782,58.9273319 16.2896975,56.1962132 L11.925719,23.6394033 Z" id="Rectangle-2"></path>
                    <path d="M6.19025006,22.9298774 C6.0503155,20.5953528 7.84104175,18.7028466 10.1793004,18.7028466 L12.4216783,18.7028466 C13.5262734,18.7028466 14.3685592,19.5898042 14.3023662,20.6941002 L11.9956285,59.1773465 C11.9297087,60.2770855 10.9845525,61.1686001 9.88237041,61.1686001 L10.4762303,61.1686001 C9.37502996,61.1686001 8.42916524,60.2816424 8.36297225,59.1773465 L6.19025006,22.9298774 Z" id="Rectangle-3" transform="translate(10.244296, 39.935723) rotate(16.000000) translate(-10.244296, -39.935723) "></path>
                    <ellipse id="Oval-3" cx="28" cy="8.49315068" rx="8.48484848" ry="8.49315068"></ellipse>
                </g>
                <g id="Group-3" transform="translate(23.000000, 0.000000)">
                    <path d="M7.30000191,27.0000319 C7.13431543,24.2385905 9.24419519,22 12,22 L15.000385,22 C16.1047419,22 16.9466561,22.8890643 16.8805452,23.9909141 L14.1194548,70.0090859 C14.0534818,71.1086374 13.1122704,72 12,72 L12,72 C10.8954305,72 9.94665614,71.1109357 9.88054516,70.0090859 L7.30000191,27.0000319 Z" id="Rectangle-3" transform="translate(12.000000, 47.000000) rotate(16.000000) translate(-12.000000, -47.000000) "></path>
                    <path d="M49.3000019,27.0000319 C49.1343154,24.2385905 51.2441952,22 54,22 L57.000385,22 C58.1047419,22 58.9466561,22.8890643 58.8805452,23.9909141 L56.1194548,70.0090859 C56.0534818,71.1086374 55.1122704,72 54,72 L54,72 C52.8954305,72 51.9466561,71.1109357 51.8805452,70.0090859 L49.3000019,27.0000319 Z" id="Rectangle-3" transform="translate(54.000000, 47.000000) scale(-1, 1) rotate(16.000000) translate(-54.000000, -47.000000) "></path>
                    <path d="M13.9131381,26.9081174 C13.4088259,24.197439 15.2362844,22 18.0053221,22 L47.9946779,22 C50.759041,22 52.5913035,24.1967438 52.0868619,26.9081174 L44.6108125,67.0918826 C44.1065003,69.802561 41.468545,72 38.6949225,72 L27.3050775,72 C24.5421339,72 21.8936291,69.8032562 21.3891875,67.0918826 L13.9131381,26.9081174 Z" id="Rectangle-2"></path>
                    <circle id="Oval-3" cx="33" cy="10" r="10"></circle>
                </g>
            </g>
        </g>
    </g>
</svg>